<svg width="23" height="16" viewBox="0 0 23 16" fill="none" xmlns="http://www.w3.org/2000/svg">
<path d="M0.893643 15V0.454545H3.31552V12.9474H9.8141V15H0.893643ZM20.1213 4.3679C20.0502 3.71922 19.7543 3.21733 19.2335 2.86222C18.7174 2.50237 18.0569 2.32244 17.252 2.32244C16.679 2.32244 16.1842 2.41004 15.7676 2.58523C15.3556 2.76042 15.0384 3.00189 14.8159 3.30966C14.5933 3.61269 14.4797 3.95833 14.475 4.34659C14.475 4.66856 14.5507 4.94792 14.7022 5.18466C14.8538 5.4214 15.055 5.62027 15.3059 5.78125C15.5616 5.94223 15.8386 6.07718 16.1369 6.18608C16.4399 6.29025 16.7382 6.37784 17.0318 6.44886L18.4238 6.80398C18.9305 6.92708 19.4324 7.0928 19.9295 7.30114C20.4314 7.50473 20.8859 7.76989 21.2931 8.09659C21.7051 8.41856 22.0342 8.81392 22.2804 9.28267C22.5266 9.75142 22.6497 10.3078 22.6497 10.9517C22.6497 11.785 22.4342 12.5237 22.0034 13.1676C21.5772 13.8116 20.957 14.3158 20.1426 14.6804C19.3329 15.045 18.3528 15.2273 17.2022 15.2273C16.0895 15.2273 15.126 15.0545 14.3116 14.7088C13.4972 14.3632 12.8604 13.8636 12.4011 13.2102C11.9466 12.5521 11.698 11.7614 11.6554 10.8381H14.0559C14.0938 11.3542 14.2548 11.7827 14.5389 12.1236C14.8277 12.4645 15.2018 12.7202 15.661 12.8906C16.1203 13.0563 16.627 13.1392 17.1809 13.1392C17.7775 13.1392 18.3055 13.0469 18.7647 12.8622C19.224 12.6776 19.5839 12.4195 19.8443 12.0881C20.1094 11.7566 20.242 11.3707 20.242 10.9304C20.242 10.5232 20.126 10.1894 19.894 9.92898C19.6667 9.66856 19.3495 9.45076 18.9423 9.27557C18.5398 9.10038 18.0782 8.9465 17.5574 8.81392L15.8741 8.35938C14.6904 8.04688 13.7553 7.58049 13.0687 6.96023C12.3822 6.33996 12.0413 5.5161 12.046 4.48864C12.0413 3.6411 12.2685 2.90009 12.7278 2.26562C13.1918 1.63116 13.8192 1.13873 14.6099 0.788351C15.4006 0.433238 16.2931 0.255681 17.2875 0.255681C18.296 0.255681 19.1838 0.433238 19.9508 0.788351C20.7226 1.13873 21.3287 1.62405 21.769 2.24432C22.2093 2.85985 22.4366 3.56771 22.4508 4.3679H20.1213Z" fill="#1C23D8"/>
</svg>
