<svg aria-hidden="true" style="position: absolute; width: 0; height: 0; overflow: hidden;" version="1.1" xmlns="http://www.w3.org/2000/svg" xmlns:xlink="http://www.w3.org/1999/xlink">
    <defs>
        <symbol id="home" viewBox="0 0 15 15" fill="none">
            <path fill="#999" d="M14 6.8 8 2.2a.8.8 0 0 0-1 0L1 6.8V7.1l.3.3h.1c0 .1.1 0 .2 0l1-.8v6l.1.3H6.6V9.5h1.7v3.1l.1.3.3.1H12l.3-.1V6.6l1.1.9a.2.2 0 0 0 .3 0L14 7a.2.2 0 0 0 0-.1.2.2 0 0 0 0-.2Zm-2.4 5.4H9V8.8l-.4-.1H6.3a.4.4 0 0 0-.3 0 .4.4 0 0 0-.1.4v3.1H3.4V6l4.1-3.2 4 3.2v6.2Z"/>
        </symbol>
        <symbol id="arrow-crumbs" viewBox="0 0 10 11" fill="none">
            <path stroke="#405EFF" d="M3.9 1.6A.5.5 0 0 0 3 2v7.2a.5.5 0 0 0 .9.3L7.4 6a.5.5 0 0 0 0-.7L4 1.6Z"/>
        </symbol>
        <symbol id="arrowleft" viewBox="0 0 24 24" fill="none">
            <path stroke="#405EFF" stroke-linecap="round" stroke-linejoin="round" stroke-miterlimit="10" stroke-width="1.5" d="m9.6 6-6.1 6 6 6m11-6H3.7"/>
        </symbol>
    </defs>
</svg>
